<svg xmlns="http://www.w3.org/2000/svg" x="0px" y="0px" viewBox="0 0 91.5 80" xml:space="preserve" fill="none" stroke="#2a2424">
<ellipse stroke-width="3" stroke-linecap="round" stroke-linejoin="round" stroke-miterlimit="10" cx="36.71" cy="6.75" rx="29.619" ry="4.75"/>
<path stroke-width="3" stroke-linecap="round" stroke-linejoin="round" stroke-miterlimit="10" d="
	M69.591,32.023C69.591,35.324,54.093,38,36.21,38S3.829,35.324,3.829,32.023"/>
<ellipse stroke-width="3" stroke-linecap="round" stroke-linejoin="round" stroke-miterlimit="10" cx="36.71" cy="22.978" rx="32.381" ry="5.976"/>
<path stroke-width="3" stroke-linecap="round" stroke-linejoin="round" stroke-miterlimit="10" d="
	M59.593,73.123c-2.01,2.521-10.279,4.107-22.856,4.24c-12.577,0.134-21.315-2.767-23.248-4.751"/>
<path stroke-width="3" stroke-linecap="round" stroke-linejoin="round" stroke-miterlimit="10" d="
	M6.67,7.5c0,0-11.091,35.734,6.844,64.867"/>
<path stroke-width="3" stroke-linecap="round" stroke-linejoin="round" stroke-miterlimit="10" d="
	M66.454,8.5c0,0,11.091,35.734-6.844,64.867"/>
<path stroke-width="3" stroke-linecap="round" stroke-linejoin="round" stroke-miterlimit="10" d="
	M63.067,43.029c-0.718,6.488-2.234,13.344-5.004,20.088"/>
<circle stroke-width="3" stroke-linecap="round" stroke-linejoin="round" stroke-miterlimit="10" cx="29.068" cy="63.62" r="3.485"/>
<circle cx="29.006" stroke-width="3" stroke-linecap="round" stroke-linejoin="round" stroke-miterlimit="10" cy="46.788" r="2.856"/>
<circle cx="39.759" stroke-width="3" stroke-linecap="round" stroke-linejoin="round" stroke-miterlimit="10" cy="54.973" r="2.856"/>
<path stroke-width="3" stroke-linecap="round" stroke-linejoin="round" stroke-miterlimit="10" d="
	M74.954,63.196h-0.789h-8.574l3-9.98h5.574h0.789c2.246,0,4.074-1.828,4.074-4.075v-0.552V31.714c0-2.247-1.828-4.074-4.074-4.074
	h-4.363l-1-9.981h5.363c7.75,0,14.055,6.305,14.055,14.056v16.875v0.552C89.009,56.892,82.704,63.196,74.954,63.196z"/>
<line stroke-width="3" stroke-linecap="round" stroke-linejoin="round" stroke-miterlimit="10" x1="55.41" y1="68.653" x2="54.199" y2="70.345"/>
</svg>
