<svg xmlns="http://www.w3.org/2000/svg" viewBox="0 0 89.009 67.423" xml:space="preserve" fill="#2a2424" stroke="none">
<g>
	<path d="M16.932,25.271c-0.693,0-1.316-0.483-1.466-1.189c-0.172-0.81,0.345-1.606,1.156-1.779
		c2.74-0.582,5.861-1.026,9.277-1.319c0.829-0.073,1.552,0.541,1.623,1.366c0.071,0.826-0.541,1.552-1.366,1.623
		c-3.293,0.283-6.291,0.708-8.911,1.265C17.14,25.26,17.035,25.271,16.932,25.271z"/>
	<path d="M44.504,66.923c-6.995,0-14.522-1.869-14.522-5.973c0-0.74,0.273-1.844,1.577-2.904
		c0.643-0.523,1.587-0.426,2.11,0.218c0.522,0.643,0.425,1.587-0.218,2.11c-0.383,0.312-0.47,0.526-0.47,0.576
		c0,0.764,3.962,2.973,11.522,2.973s11.522-2.208,11.522-2.973c0-0.076-0.148-0.392-0.808-0.823
		c-0.693-0.453-0.888-1.383-0.435-2.076c0.453-0.692,1.382-0.888,2.076-0.435c1.791,1.17,2.167,2.459,2.167,3.333
		C59.026,65.054,51.499,66.923,44.504,66.923z"/>
	<path d="M44.504,61.956C20.24,61.956,0.5,42.216,0.5,17.952c0-0.829,0.671-1.5,1.5-1.5s1.5,0.671,1.5,1.5
		c0,22.61,18.394,41.004,41.004,41.004c22.61,0,41.005-18.394,41.005-41.004c0-0.829,0.671-1.5,1.5-1.5s1.5,0.671,1.5,1.5
		C88.509,42.216,68.768,61.956,44.504,61.956z"/>
	<path d="M70.679,8.408c-0.001,1.064-0.063,2.065-0.197,2.99c9.621,2.041,15.026,5.016,15.026,7.431
		c0,4.104-15.6,9.83-41.005,9.83c-25.405,0-41.004-5.726-41.004-9.83s15.599-9.83,41.004-9.83c2.281,0,4.479,0.048,6.598,0.135
		c0.543-1.027,1.212-2.005,2.033-2.889c-2.863-0.161-5.758-0.246-8.631-0.246C23.172,5.999,0.5,10.496,0.5,18.829
		s22.672,12.83,44.004,12.83c21.333,0,44.005-4.497,44.005-12.83C88.509,14.053,81.055,10.54,70.679,8.408z"/>
	<path d="M53.153,25.345c0,0-0.001,0-0.001,0c-2.337,0-3.95-0.253-4.018-0.265c-0.313-0.05-0.602-0.198-0.826-0.422
		l-0.273-0.274c-0.223-0.223-0.369-0.511-0.418-0.822c-0.073-0.453-1.71-11.176,4.023-17.898c3.817-4.477,9.929-6.071,18.066-4.67
		c0.305,0.053,0.587,0.199,0.806,0.418l0.773,0.773c0.219,0.219,0.365,0.501,0.418,0.806c1.215,7.063,0.184,12.6-3.066,16.456
		C64.529,24.321,57.95,25.345,53.153,25.345z M50.479,22.22c0.628,0.06,1.561,0.125,2.673,0.125c0,0,0.001,0,0.001,0
		c3.406,0,9.647-0.627,13.19-4.832c2.585-3.068,3.419-7.625,2.48-13.548l-0.092-0.092C61.959,2.799,56.958,4.058,53.93,7.601
		C49.944,12.265,50.242,19.698,50.479,22.22z"/>
	<path d="M49.371,25.099c-0.384,0-0.768-0.146-1.061-0.439c-0.586-0.586-0.586-1.536,0-2.121L61.619,9.231
		c0.586-0.586,1.535-0.586,2.121,0s0.586,1.536,0,2.121L50.432,24.66C50.139,24.953,49.755,25.099,49.371,25.099z"/>
	<g style="fill: none; stroke: #2a2424" >
		<path stroke-width="3" stroke-linecap="round" stroke-linejoin="round" stroke-miterlimit="10" d="M48.121,23.379c0,0,2.727-17.036-13.844-14.185L33.75,9.72c-2.851,16.572,14.186,13.846,14.186,13.846
			L48.121,23.379z"/>
	</g>
	<path d="M48.121,24.879c-0.384,0-0.768-0.146-1.061-0.439l-9.052-9.052c-0.586-0.586-0.586-1.536,0-2.121
		c0.586-0.586,1.535-0.586,2.121,0l9.052,9.052c0.586,0.586,0.586,1.536,0,2.121C48.889,24.733,48.505,24.879,48.121,24.879z"/>
	<path d="M63.309,50.521c-0.501,0-0.99-0.25-1.274-0.707c-0.438-0.703-0.223-1.628,0.48-2.066
		c6.31-3.931,11.439-9.5,14.834-16.103c0.378-0.736,1.281-1.027,2.02-0.648c0.736,0.379,1.027,1.283,0.648,2.02
		c-3.642,7.085-9.146,13.059-15.916,17.276C63.854,50.447,63.58,50.521,63.309,50.521z"/>
	<path d="M57.216,54.306c-0.538,0-1.057-0.29-1.327-0.797c-0.388-0.732-0.11-1.64,0.622-2.028l1.561-0.828
		c0.731-0.389,1.639-0.11,2.028,0.622c0.388,0.732,0.11,1.64-0.622,2.028l-1.561,0.828C57.694,54.25,57.453,54.306,57.216,54.306z"
		/>
	<path d="M33.517,14.902c-12.604,0.88-23.102,3.31-28.61,6.782c-0.701,0.442-0.911,1.368-0.469,2.069
		c0.285,0.453,0.772,0.7,1.271,0.7c0.273,0,0.55-0.075,0.798-0.231c5.112-3.222,15.468-5.534,27.72-6.356
		C33.879,17.004,33.634,16.022,33.517,14.902z"/>
	<g>
		<path d="M84.102,21.677c-3.383-2.129-8.893-3.883-15.667-5.123c-0.649,1.018-1.405,1.891-2.246,2.628
			c7.154,1.167,12.925,2.899,16.315,5.033c0.702,0.442,1.627,0.231,2.068-0.471C85.014,23.044,84.803,22.119,84.102,21.677z"/>
		<path d="M49.175,14.62c-0.689-0.021-1.378-0.045-2.075-0.058c0.434,0.989,0.72,2.022,0.9,3.021
			c0.296,0.007,0.586,0.021,0.881,0.029C48.922,16.678,49.012,15.668,49.175,14.62z"/>
	</g>
</g>
</svg>
